# xmcd
#
# Track frame offsets:
#	150
#	15743
#	35066
#	52214
#	69180
#	83579
#	101472
#	113809
#	119896
#	135066
#	152889
#	167132
#
# Disc length: 2423 seconds
#
# Revision: 1
# Processed by: cddbd v1.5.2PL0 Copyright (c) Steve Scherf et al.
# Submitted via: audiograbber 1.83.01
#
DISCID=9b09750c
DTITLE=P:LOT - Mein Name Ist
DYEAR=2008
DGENRE=Alternative
TTITLE0=Nur Einen Weg
TTITLE1=Zeit Zu Leben
TTITLE2=Ihr Versuchungen
TTITLE3=Mein Name Ist
TTITLE4=Bei All Den Gewinnern
TTITLE5=Pacman
TTITLE6=So Oder So
TTITLE7=Interlude
TTITLE8=Besser Als Das Glück
TTITLE9=Steine and Gold
TTITLE10=Die Gelegenheit
TTITLE11=Diese Brücken
EXTD=
EXTT0=
EXTT1=
EXTT2=
EXTT3=
EXTT4=
EXTT5=
EXTT6=
EXTT7=
EXTT8=
EXTT9=
EXTT10=
EXTT11=
PLAYORDER=
